<svg width="506" height="506" viewBox="0 0 506 506" fill="none" xmlns="http://www.w3.org/2000/svg">
<path d="M276.031 154.557C274.752 170.648 286.832 136.145 289.178 131.592C297.663 115.122 383.858 -36.5896 393.904 14.8859C401.923 55.9736 390.094 115.536 385.389 155.81C376.389 232.845 364.722 310.401 345.351 383.793C335.348 421.688 318.955 489.783 285.891 501.125C255.275 511.627 214.237 476.068 196.852 443.085C107.441 273.451 442.404 195.879 490.264 111.549C495.186 102.876 511.441 64.2681 497.435 54.9709C479.615 43.1417 456.336 101.81 451.123 114.681C428.252 171.145 415.207 235.477 409.74 299.656C403.63 371.383 412.589 408.205 437.378 466.468" stroke="white" stroke-width="6" stroke-linecap="round"/>
<path d="M70.4683 111.861C76.396 111.861 82.3395 104.403 86.8257 99.7594C110.927 74.8106 133.459 43.8104 153.218 12.3569C171.495 -16.7384 151.108 30.187 147.765 42.5369C121.452 139.764 109.68 243.484 94.8441 344.935C88.7419 386.662 84.7268 464.937 55.6076 491.054C33.5308 510.854 17.3265 483.013 9.31488 456.391C-8.17752 398.266 12.8961 352.153 45.2372 315.8C94.8704 260.01 150.771 219.518 207.101 179.094" stroke="white" stroke-width="6" stroke-linecap="round"/>
</svg>
