<svg width="149" height="108" viewBox="0 0 149 108" fill="none" xmlns="http://www.w3.org/2000/svg">
<path d="M80.6359 33.8377C80.2721 37.1119 83.707 30.0915 84.3741 29.1649C86.7869 25.8138 111.296 -5.0554 114.153 5.41847C116.433 13.7787 113.069 25.8981 111.731 34.0926C109.172 49.7672 105.855 65.5479 100.347 80.481C97.5025 88.1917 92.8411 102.047 83.4395 104.355C74.7338 106.492 63.0647 99.2566 58.1213 92.5454C32.6974 58.0295 127.944 42.2457 141.552 25.0868C142.952 23.3221 147.574 15.4664 143.592 13.5747C138.524 11.1678 131.905 23.1051 130.423 25.724C123.919 37.213 120.21 50.3028 118.656 63.3615C116.918 77.956 119.466 85.4483 126.514 97.3031" stroke="white" stroke-width="6" stroke-linecap="round"/>
<path d="M22.1845 25.1503C23.87 25.1503 25.56 23.6328 26.8357 22.6879C33.6888 17.6115 40.0958 11.3038 45.7141 4.90387C50.9111 -1.01622 45.1141 8.53181 44.1637 11.0447C36.6816 30.8278 33.3343 51.932 29.1157 72.5744C27.3805 81.0648 26.2388 96.9916 17.9588 102.306C11.6814 106.334 7.07371 100.67 4.79562 95.2528C-0.178303 83.426 5.81394 74.0433 15.01 66.6464C29.1231 55.2946 45.0184 47.0555 61.0357 38.8303" stroke="white" stroke-width="6" stroke-linecap="round"/>
</svg>
